<!DOCTYPE svg PUBLIC "-//W3C//DTD SVG 1.1//EN" "http://www.w3.org/Graphics/SVG/1.1/DTD/svg11.dtd">
<svg width="800px" height="800px" viewBox="-1.11 0 54.749 54.749" xmlns="http://www.w3.org/2000/svg" fill="#AA2C33" transform="matrix(-1, 0, 0, 1, 0, 0)">

<g id="SVGRepo_bgCarrier" stroke-width="0"/>

<g id="SVGRepo_tracerCarrier" stroke-linecap="round" stroke-linejoin="round"/>

<g id="SVGRepo_iconCarrier"> <g id="Group_996" data-name="Group 996" transform="translate(-1028.143 -355.889)"> <path id="Path_700" data-name="Path 700" d="M1035.98,384.584a1.208,1.208,0,1,0,1.209,1.209A1.211,1.211,0,0,0,1035.98,384.584Z"/> <path id="Path_701" data-name="Path 701" d="M1080.324,365.32a.752.752,0,0,0-1.037.224l-8.559,13.266a.738.738,0,0,0-.181-.612.751.751,0,0,0-1.06-.043,1.548,1.548,0,0,1-.967.254l7.775-12.052a.75.75,0,1,0-1.261-.813l-8.18,12.68a9.008,9.008,0,0,1-.878-.231.806.806,0,0,0-.177-.028c-.013,0-.024-.008-.036-.008h-1.886a18.088,18.088,0,0,0,2.461-6.942l10.911-12.956a1.317,1.317,0,0,0-1.906-1.811l-14.271,13.321a62.9,62.9,0,0,0-9.568,4.987,31.521,31.521,0,0,0-7.3,6.127c-8.408-2.528-12.232,2.4-13.035,3.648a.86.86,0,0,0-.2.164,5.224,5.224,0,0,0-2.819,4.12.755.755,0,0,0,.219.543.784.784,0,0,0,.543.219,9.435,9.435,0,0,1,5.251,1.3c.007.005.016.006.023.011l.009.009a7.867,7.867,0,0,1,2.865,2.547,24.374,24.374,0,0,0,2.656,3.01,10.644,10.644,0,0,0,7.286,3.057c.217,0,.348-.01.381-.012a14.537,14.537,0,0,0,6.945-1.648l-7.633,11.832a.75.75,0,1,0,1.261.813l6.434-9.972a3.864,3.864,0,0,0,.883,1.564.724.724,0,0,0,.431.221l-4.757,7.374a.75.75,0,1,0,1.261.813l6.208-9.623c.016.005.027.012.043.016a.75.75,0,0,0,.926-.516.738.738,0,0,0-.187-.712l21.356-33.1A.75.75,0,0,0,1080.324,365.32Zm-11.962,14.6a3.249,3.249,0,0,0,2.024-.575l-1.775,2.75a4.632,4.632,0,0,1-1.521-1.465l.488-.757A7.257,7.257,0,0,0,1068.362,379.915Zm-4.794-.458h1.5a5.589,5.589,0,0,0,.3,1.067l-2.544,3.943A36.529,36.529,0,0,0,1063.568,379.457Zm-1.533-5.661c.012-.106.025-.212.036-.319.015-.147.029-.3.042-.447s.023-.285.032-.43l.02-.269c.007-.088.014-.176.019-.268l.024-.428c.016-.362.027-.729.032-1.105l11.9-11.1Zm-1.32-2.442c0,.071,0,.145-.005.215l-.023.409c-.005.08-.011.157-.018.234l-.021.288c-.008.133-.017.266-.029.395s-.025.284-.04.425c-.033.314-.072.621-.116.928l-.04.3c-.059.383-.125.756-.2,1.122-.015.076-.032.149-.049.223l-.077.335v0l-.014.063c-.035.154-.07.307-.107.455s-.076.293-.115.435c-.056.2-.115.4-.175.6l-.038.123c-.03.1-.061.2-.1.3-.072.219-.149.43-.225.639-.085.23-.173.454-.264.674l-.034.085c-.046.112-.092.225-.14.333l-.07.153c-.052.115-.1.228-.156.34s-.1.209-.151.311c-.086.172-.172.342-.259.5l-.1.187a17.5,17.5,0,0,1-1.068,1.7l-.035.05q-.2.273-.4.533h0c-.288.368-.584.707-.883,1.031l-.186.2c-.291.3-.585.593-.879.859-.051.046-.1.088-.152.132-.124.11-.248.206-.373.31.019-.032.032-.066.05-.1.058-.1.106-.206.159-.309.119-.234.229-.472.324-.715.047-.12.092-.241.133-.363.082-.246.15-.5.208-.75.026-.113.056-.225.077-.34a8.139,8.139,0,0,0,.132-1.123,8.623,8.623,0,0,0-.025-1.079c-.009-.12-.03-.237-.044-.356-.028-.235-.058-.47-.1-.7-.026-.137-.061-.271-.092-.407-.048-.209-.1-.416-.158-.62-.041-.139-.085-.274-.13-.411-.065-.2-.132-.388-.205-.578-.052-.134-.1-.265-.159-.395-.078-.187-.159-.369-.244-.55-.058-.123-.115-.246-.175-.367-.09-.18-.183-.353-.276-.525-.061-.11-.119-.222-.181-.329-.1-.179-.207-.349-.312-.519-.054-.087-.108-.178-.162-.263-.01-.015-.019-.032-.029-.047A61.338,61.338,0,0,1,1060.715,371.354Zm-9.012,4.866.023.035c.042.065.084.136.126.2.1.16.2.323.3.493.054.092.1.189.157.283.085.155.17.312.252.473.054.107.106.218.158.327.075.159.148.32.217.483.05.116.1.234.144.352.065.166.125.336.183.506.041.121.081.241.117.363.054.179.1.36.142.542.029.118.059.236.083.355.04.2.067.407.092.611.013.1.032.2.041.309a7.254,7.254,0,0,1,.023.932,6.6,6.6,0,0,1-.117.969c-.02.1-.055.2-.08.307a6.221,6.221,0,0,1-.18.624c-.042.118-.1.233-.147.35-.078.182-.159.364-.254.541-.065.12-.139.238-.212.355-.1.168-.213.335-.333.5-.086.116-.177.231-.271.345-.131.159-.272.315-.42.47-.1.109-.21.219-.323.326-.162.154-.338.3-.517.452-.12.1-.237.2-.365.3-.2.156-.424.306-.647.456-.124.083-.241.169-.371.25-.028.018-.061.034-.089.051-.006-.073-.022-.135-.029-.207q-.059-.588-.161-1.124c-.02-.109-.038-.219-.061-.324a11.689,11.689,0,0,0-.317-1.181c-.019-.058-.042-.109-.062-.166q-.166-.474-.361-.893c-.04-.086-.079-.171-.12-.254a9.631,9.631,0,0,0-.477-.867l-.017-.024c-.165-.261-.336-.495-.508-.716-.048-.062-.095-.12-.143-.178-.154-.189-.308-.364-.461-.522l-.063-.069c-.173-.177-.341-.33-.5-.47l-.121-.1c-.134-.111-.262-.211-.381-.3-.014-.01-.032-.026-.045-.036A30.894,30.894,0,0,1,1051.7,376.22Zm-20.156,9.667,2.266,1.7v1.207a11.216,11.216,0,0,0-4-.9A4.11,4.11,0,0,1,1031.547,385.887Zm6.7,6.444a9.066,9.066,0,0,0-2.932-2.713V387.21a.754.754,0,0,0-.3-.6l-2.373-1.78c1.019-1.388,4.435-4.926,11.559-2.593l.007,0,.046.025.068.038.077.047.1.063.1.069.127.089c.041.029.084.062.127.095s.1.076.15.118l.142.12c.054.047.109.1.166.148s.1.1.154.148.119.118.179.182.106.114.16.174.123.142.184.216.109.134.164.206.122.166.183.252.108.154.162.236.119.193.178.292.1.175.154.267c.058.107.113.222.168.336.048.1.1.194.141.3.054.122.1.254.153.384.042.108.085.213.124.326.048.141.089.292.132.441.034.116.07.228.1.35.041.163.074.34.108.513.024.121.051.236.072.361.032.2.054.413.076.625.013.114.03.219.039.336.027.336.042.685.042,1.051a.251.251,0,0,0,.006.026.736.736,0,0,0,.04.234c.006.015.016.026.022.04s.014.031.022.046.02.031.03.047a.771.771,0,0,0,.138.162c.01.009.015.023.026.032s.012.005.017.009.033.024.05.034l.01.011c.008.005.019,0,.027.007a.711.711,0,0,0,.176.073.483.483,0,0,0,.065.01.7.7,0,0,0,.12.019h0a.766.766,0,0,0,.17-.02l.084-.02.039-.011.133-.037.086-.025.173-.053.121-.039c.069-.022.141-.047.219-.074l.148-.052c.083-.03.172-.064.264-.1l.172-.066c.1-.041.21-.086.321-.133l.172-.072c.171-.075.35-.156.536-.245l.111-.055c.153-.075.31-.153.473-.239.074-.039.151-.082.227-.124.13-.071.261-.143.4-.22l.266-.159c.129-.078.26-.158.393-.242.093-.06.188-.121.283-.184.134-.089.268-.182.4-.277.1-.067.191-.135.288-.206.143-.1.286-.214.43-.326.092-.071.183-.14.275-.215.166-.135.333-.278.5-.424.07-.061.14-.118.21-.181q.342-.308.685-.646c0,.016-.008.033-.011.049a11.572,11.572,0,0,1-.347,1.4c-.019.063-.036.128-.057.191a12.526,12.526,0,0,1-.507,1.287c-.036.079-.073.158-.11.236-.2.409-.409.807-.64,1.19-.037.062-.077.123-.116.184-.246.4-.5.782-.78,1.149l-.005.007c-.277.37-.57.72-.868,1.061-.044.051-.088.1-.134.154-.286.32-.58.626-.878.919l-.172.169c-.3.286-.6.562-.9.821-.047.042-.1.081-.142.121-.3.258-.6.5-.9.734l-.035.028-2.643,1.762a9.094,9.094,0,0,1-6.323-2.631A23.085,23.085,0,0,1,1038.245,392.331Zm12.018,5.188q.177-.132.36-.274c.42-.325.849-.676,1.28-1.055.087-.077.174-.159.261-.238.128-.115.255-.228.383-.348.1-.1.2-.2.3-.3s.228-.219.341-.334c.085-.087.169-.18.254-.27.125-.132.251-.261.374-.4.093-.1.184-.214.276-.321.111-.128.223-.253.332-.385s.193-.247.289-.37.2-.248.3-.377.179-.255.269-.383.191-.265.282-.4.167-.268.25-.4.178-.279.262-.422.149-.277.224-.415.166-.3.242-.449c.068-.137.128-.279.192-.418.075-.161.153-.319.221-.484.06-.141.109-.287.164-.431.064-.169.132-.336.19-.508.05-.148.089-.3.134-.451.052-.175.108-.348.154-.527.038-.15.065-.306.1-.459.04-.185.084-.368.116-.557.027-.154.04-.314.061-.47.026-.194.057-.385.074-.583.013-.16.014-.326.022-.489.009-.19.026-.377.027-.57.093-.123.185-.248.278-.377l.043-.061c.149-.21.292-.431.435-.651.249-.383.492-.776.717-1.184l.113-.2c.095-.178.188-.361.28-.546.056-.112.11-.225.165-.339l.061-.125c.037-.076.074-.153.109-.232l.074-.175c.052-.12.1-.243.153-.366l.035-.084c.1-.236.192-.478.283-.726.083-.226.165-.453.243-.686.036-.111.071-.224.106-.339l.036-.118c.065-.211.127-.424.188-.642q.062-.229.123-.466c.031-.124.06-.251.09-.379l2.75-3.265a17.494,17.494,0,0,1-2.009,4.256.736.736,0,0,0-.119.38,31.787,31.787,0,0,1-2.373,11.1l-3.073,4.763A11.9,11.9,0,0,1,1050.263,397.519Zm7.706-2.756a18.322,18.322,0,0,0,3.007-4.661l5.24-8.122a6.146,6.146,0,0,0,1.574,1.384l-9.944,15.413a2.924,2.924,0,0,1-1.282-1.758c0-.019-.012-.035-.016-.053Zm-1.538,6.206a.669.669,0,0,0-.052-.088,2.214,2.214,0,0,1-.583-2,4.543,4.543,0,0,0,1.237,1.157Z" /> </g> </g>

</svg>